<mxfile host="app.diagrams.net" modified="2023-10-05T20:21:14.956Z" agent="Mozilla/5.0 (Windows NT 10.0; Win64; x64; rv:109.0) Gecko/20100101 Firefox/118.0" etag="8zw-JMVJGQIjG0Br22_o" version="22.0.3" type="device">
  <diagram id="6a731a19-8d31-9384-78a2-239565b7b9f0" name="Page-1">
    <mxGraphModel dx="1615" dy="871" grid="1" gridSize="10" guides="1" tooltips="1" connect="1" arrows="1" fold="1" page="1" pageScale="1" pageWidth="1169" pageHeight="827" background="none" math="0" shadow="0">
      <root>
        <mxCell id="0" />
        <mxCell id="1" parent="0" />
        <mxCell id="1765" value="&lt;div style=&quot;font-size: 18px;&quot;&gt;Management&lt;/div&gt;" style="rounded=1;whiteSpace=wrap;html=1;shadow=1;labelBackgroundColor=none;strokeColor=none;strokeWidth=3;fillColor=#F08705;fontFamily=Helvetica;fontSize=18;fontColor=#FFFFFF;align=center;spacing=5;arcSize=7;perimeterSpacing=2;" parent="1" vertex="1">
          <mxGeometry x="555" y="40" width="130" height="40" as="geometry" />
        </mxCell>
        <mxCell id="1767" value="Entwickler" style="rounded=1;whiteSpace=wrap;html=1;shadow=1;labelBackgroundColor=none;strokeColor=none;strokeWidth=3;fillColor=#F08705;fontFamily=Helvetica;fontSize=18;fontColor=#FFFFFF;align=center;spacing=5;arcSize=7;perimeterSpacing=2;" parent="1" vertex="1">
          <mxGeometry x="425" y="60" width="110" height="40" as="geometry" />
        </mxCell>
        <mxCell id="1769" value="Kunden" style="rounded=1;whiteSpace=wrap;html=1;shadow=1;labelBackgroundColor=none;strokeColor=none;strokeWidth=3;fillColor=#F08705;fontFamily=Helvetica;fontSize=18;fontColor=#FFFFFF;align=center;spacing=5;arcSize=7;perimeterSpacing=2;" parent="1" vertex="1">
          <mxGeometry x="365" y="120" width="105" height="40" as="geometry" />
        </mxCell>
        <mxCell id="mnCScJUHg9c3yrpS6Z5W-1780" value="Tester" style="rounded=1;whiteSpace=wrap;html=1;shadow=1;labelBackgroundColor=none;strokeColor=none;strokeWidth=3;fillColor=#F08705;fontFamily=Helvetica;fontSize=18;fontColor=#FFFFFF;align=center;spacing=5;arcSize=7;perimeterSpacing=2;" parent="1" vertex="1">
          <mxGeometry x="695" y="90" width="100" height="40" as="geometry" />
        </mxCell>
        <mxCell id="mnCScJUHg9c3yrpS6Z5W-1781" value="&lt;div style=&quot;font-size: 18px;&quot;&gt;...&lt;/div&gt;" style="rounded=1;whiteSpace=wrap;html=1;shadow=1;labelBackgroundColor=none;strokeColor=none;strokeWidth=3;fillColor=#F08705;fontFamily=Helvetica;fontSize=18;fontColor=#FFFFFF;align=center;spacing=5;arcSize=7;perimeterSpacing=2;" parent="1" vertex="1">
          <mxGeometry x="725" y="150" width="80" height="40" as="geometry" />
        </mxCell>
        <mxCell id="mnCScJUHg9c3yrpS6Z5W-1803" value="Struktur" style="rounded=1;whiteSpace=wrap;html=1;shadow=1;labelBackgroundColor=none;strokeColor=none;strokeWidth=3;fillColor=#9090d5;fontFamily=Helvetica;fontSize=18;fontColor=#FFFFFF;align=center;spacing=5;arcSize=7;perimeterSpacing=2;" parent="1" vertex="1">
          <mxGeometry x="890" y="90" width="130" height="40" as="geometry" />
        </mxCell>
        <mxCell id="mnCScJUHg9c3yrpS6Z5W-1804" value="Verhalten" style="rounded=1;whiteSpace=wrap;html=1;shadow=1;labelBackgroundColor=none;strokeColor=none;strokeWidth=3;fillColor=#9090d5;fontFamily=Helvetica;fontSize=18;fontColor=#FFFFFF;align=center;spacing=5;arcSize=7;perimeterSpacing=2;" parent="1" vertex="1">
          <mxGeometry x="960" y="160" width="130" height="40" as="geometry" />
        </mxCell>
        <mxCell id="mnCScJUHg9c3yrpS6Z5W-1805" value="Interaktionen" style="rounded=1;whiteSpace=wrap;html=1;shadow=1;labelBackgroundColor=none;strokeColor=none;strokeWidth=3;fillColor=#9090d5;fontFamily=Helvetica;fontSize=18;fontColor=#FFFFFF;align=center;spacing=5;arcSize=7;perimeterSpacing=2;" parent="1" vertex="1">
          <mxGeometry x="970" y="230" width="140" height="40" as="geometry" />
        </mxCell>
        <mxCell id="mnCScJUHg9c3yrpS6Z5W-1806" value="&lt;div style=&quot;font-size: 18px;&quot;&gt;Kontext&lt;/div&gt;" style="rounded=1;whiteSpace=wrap;html=1;shadow=1;labelBackgroundColor=none;strokeColor=none;strokeWidth=3;fillColor=#9090d5;fontFamily=Helvetica;fontSize=18;fontColor=#FFFFFF;align=center;spacing=5;arcSize=7;perimeterSpacing=2;" parent="1" vertex="1">
          <mxGeometry x="960" y="300.5" width="130" height="40" as="geometry" />
        </mxCell>
        <mxCell id="mnCScJUHg9c3yrpS6Z5W-1827" value="..." style="rounded=1;whiteSpace=wrap;html=1;shadow=1;labelBackgroundColor=none;strokeColor=none;strokeWidth=3;fillColor=#39ac73;fontFamily=Helvetica;fontSize=18;fontColor=#FFFFFF;align=center;spacing=5;arcSize=7;perimeterSpacing=2;gradientColor=none;" parent="1" vertex="1">
          <mxGeometry x="505" y="570" width="80" height="40" as="geometry" />
        </mxCell>
        <mxCell id="mnCScJUHg9c3yrpS6Z5W-1842" value="Dokumentation" style="rounded=1;whiteSpace=wrap;html=1;shadow=1;labelBackgroundColor=none;strokeColor=none;strokeWidth=3;fillColor=#39ac73;fontFamily=Helvetica;fontSize=18;fontColor=#FFFFFF;align=center;spacing=5;arcSize=7;perimeterSpacing=2;horizontal=1;gradientColor=none;" parent="1" vertex="1">
          <mxGeometry x="20" y="450" width="160" height="40" as="geometry" />
        </mxCell>
        <mxCell id="mnCScJUHg9c3yrpS6Z5W-1843" value="Spezifikation" style="rounded=1;whiteSpace=wrap;html=1;shadow=1;labelBackgroundColor=none;strokeColor=none;strokeWidth=3;fillColor=#39ac73;fontFamily=Helvetica;fontSize=18;fontColor=#FFFFFF;align=center;spacing=5;arcSize=7;perimeterSpacing=2;gradientColor=none;" parent="1" vertex="1">
          <mxGeometry x="20" y="510" width="160" height="40" as="geometry" />
        </mxCell>
        <mxCell id="mnCScJUHg9c3yrpS6Z5W-1844" value="Diskussion" style="rounded=1;whiteSpace=wrap;html=1;shadow=1;labelBackgroundColor=none;strokeColor=none;strokeWidth=3;fillColor=#39ac73;fontFamily=Helvetica;fontSize=18;fontColor=#FFFFFF;align=center;spacing=5;arcSize=7;perimeterSpacing=2;gradientColor=none;" parent="1" vertex="1">
          <mxGeometry x="40" y="570" width="160" height="40" as="geometry" />
        </mxCell>
        <mxCell id="mnCScJUHg9c3yrpS6Z5W-1845" value="Simulation" style="rounded=1;whiteSpace=wrap;html=1;shadow=1;labelBackgroundColor=none;strokeColor=none;strokeWidth=3;fillColor=#39ac73;fontFamily=Helvetica;fontSize=18;fontColor=#FFFFFF;align=center;spacing=5;arcSize=7;perimeterSpacing=2;gradientColor=none;" parent="1" vertex="1">
          <mxGeometry x="90" y="630" width="160" height="40" as="geometry" />
        </mxCell>
        <mxCell id="mnCScJUHg9c3yrpS6Z5W-1846" value="Visualisierung" style="rounded=1;whiteSpace=wrap;html=1;shadow=1;labelBackgroundColor=none;strokeColor=none;strokeWidth=3;fillColor=#39ac73;fontFamily=Helvetica;fontSize=18;fontColor=#FFFFFF;align=center;spacing=5;arcSize=7;perimeterSpacing=2;gradientColor=none;" parent="1" vertex="1">
          <mxGeometry x="160" y="690" width="160" height="40" as="geometry" />
        </mxCell>
        <mxCell id="mnCScJUHg9c3yrpS6Z5W-1847" value="PrÃ¼fung" style="rounded=1;whiteSpace=wrap;html=1;shadow=1;labelBackgroundColor=none;strokeColor=none;strokeWidth=3;fillColor=#39ac73;fontFamily=Helvetica;fontSize=18;fontColor=#FFFFFF;align=center;spacing=5;arcSize=7;perimeterSpacing=2;gradientColor=none;" parent="1" vertex="1">
          <mxGeometry x="330" y="690" width="140" height="40" as="geometry" />
        </mxCell>
        <mxCell id="mnCScJUHg9c3yrpS6Z5W-1848" value="Code-Generierung" style="rounded=1;whiteSpace=wrap;html=1;shadow=1;labelBackgroundColor=none;strokeColor=none;strokeWidth=3;fillColor=#39ac73;fontFamily=Helvetica;fontSize=18;fontColor=#FFFFFF;align=center;spacing=5;arcSize=7;perimeterSpacing=2;gradientColor=none;" parent="1" vertex="1">
          <mxGeometry x="425" y="630" width="175" height="40" as="geometry" />
        </mxCell>
        <mxCell id="hOuJfEKyZB4NLuZjMy4P-1781" value="" style="rounded=0;whiteSpace=wrap;html=1;strokeColor=none;fillColor=#006666;fillOpacity=20;" parent="1" vertex="1">
          <mxGeometry y="180" width="170" height="80" as="geometry" />
        </mxCell>
        <mxCell id="mnCScJUHg9c3yrpS6Z5W-1839" value="Softwareentwicklungsprozess" style="rounded=1;whiteSpace=wrap;html=1;shadow=1;labelBackgroundColor=none;strokeColor=none;strokeWidth=3;fillColor=#CC0000;fontFamily=Helvetica;fontSize=18;fontColor=#FFFFFF;align=center;spacing=5;fontStyle=0;arcSize=7;perimeterSpacing=2;" parent="1" vertex="1">
          <mxGeometry x="95" y="40" width="290" height="40" as="geometry" />
        </mxCell>
        <mxCell id="mnCScJUHg9c3yrpS6Z5W-1840" value="Softwareprodukt" style="rounded=1;whiteSpace=wrap;html=1;shadow=1;labelBackgroundColor=none;strokeColor=none;strokeWidth=3;fillColor=#CC0000;fontFamily=Helvetica;fontSize=18;fontColor=#FFFFFF;align=center;spacing=5;fontStyle=0;arcSize=7;perimeterSpacing=2;" parent="1" vertex="1">
          <mxGeometry x="40" y="120" width="180" height="40" as="geometry" />
        </mxCell>
        <mxCell id="mnCScJUHg9c3yrpS6Z5W-1841" value="Realwelt" style="rounded=1;whiteSpace=wrap;html=1;shadow=1;labelBackgroundColor=none;strokeColor=none;strokeWidth=3;fillColor=#CC0000;fontFamily=Helvetica;fontSize=18;fontColor=#FFFFFF;align=center;spacing=5;fontStyle=0;arcSize=7;perimeterSpacing=2;" parent="1" vertex="1">
          <mxGeometry x="20" y="200" width="125" height="40" as="geometry" />
        </mxCell>
        <mxCell id="hOuJfEKyZB4NLuZjMy4P-1779" value="" style="rounded=0;whiteSpace=wrap;html=1;strokeColor=none;fillColor=default;" parent="1" vertex="1">
          <mxGeometry y="20" width="1130" height="730" as="geometry" />
        </mxCell>
        <mxCell id="1772" value="Prozess der Implementierung" style="rounded=1;whiteSpace=wrap;html=1;shadow=1;labelBackgroundColor=none;strokeColor=none;strokeWidth=3;fillColor=#1a8cff;fontFamily=Helvetica;fontSize=18;fontColor=#FFFFFF;align=center;spacing=5;fontStyle=0;arcSize=7;perimeterSpacing=2;gradientColor=none;gradientDirection=south;fillStyle=auto;" parent="1" vertex="1">
          <mxGeometry x="820" y="590" width="280" height="40" as="geometry" />
        </mxCell>
        <mxCell id="1774" value="Prozess des Entwurfs" style="rounded=1;whiteSpace=wrap;html=1;shadow=1;labelBackgroundColor=none;strokeColor=none;strokeWidth=3;fillColor=#1a8cff;fontFamily=Helvetica;fontSize=18;fontColor=#FFFFFF;align=center;spacing=5;fontStyle=0;arcSize=7;perimeterSpacing=2;gradientColor=none;gradientDirection=south;fillStyle=auto;" parent="1" vertex="1">
          <mxGeometry x="850" y="520" width="260" height="40" as="geometry" />
        </mxCell>
        <mxCell id="1776" value="Prozess der Anforderungsermittlung" style="rounded=1;whiteSpace=wrap;html=1;shadow=1;labelBackgroundColor=none;strokeColor=none;strokeWidth=3;fillColor=#1a8cff;fontFamily=Helvetica;fontSize=18;fontColor=#FFFFFF;align=center;spacing=5;fontStyle=0;arcSize=7;perimeterSpacing=2;gradientColor=none;gradientDirection=south;fillStyle=auto;" parent="1" vertex="1">
          <mxGeometry x="790" y="450" width="320" height="40" as="geometry" />
        </mxCell>
        <mxCell id="1778" value="kompletter Softwareengineeringsprozess" style="rounded=1;whiteSpace=wrap;html=1;shadow=1;labelBackgroundColor=none;strokeColor=none;strokeWidth=3;fillColor=#1a8cff;fontFamily=Helvetica;fontSize=18;fontColor=#FFFFFF;align=center;spacing=5;fontStyle=0;arcSize=7;perimeterSpacing=2;gradientColor=none;gradientDirection=south;fillStyle=auto;" parent="1" vertex="1">
          <mxGeometry x="720" y="380" width="360" height="40" as="geometry" />
        </mxCell>
        <mxCell id="mnCScJUHg9c3yrpS6Z5W-1790" value="Prozess des Testens" style="rounded=1;whiteSpace=wrap;html=1;shadow=1;labelBackgroundColor=none;strokeColor=none;strokeWidth=3;fillColor=#1a8cff;fontFamily=Helvetica;fontSize=18;fontColor=#FFFFFF;align=center;spacing=5;fontStyle=0;arcSize=7;perimeterSpacing=2;gradientColor=none;gradientDirection=south;fillStyle=auto;" parent="1" vertex="1">
          <mxGeometry x="750" y="660" width="200" height="40" as="geometry" />
        </mxCell>
        <mxCell id="mnCScJUHg9c3yrpS6Z5W-1792" value="..." style="rounded=1;whiteSpace=wrap;html=1;shadow=1;labelBackgroundColor=none;strokeColor=none;strokeWidth=3;fillColor=#1a8cff;fontFamily=Helvetica;fontSize=18;fontColor=#FFFFFF;align=center;spacing=5;fontStyle=0;arcSize=7;perimeterSpacing=2;gradientColor=none;gradientDirection=south;fillStyle=auto;" parent="1" vertex="1">
          <mxGeometry x="640" y="660" width="80" height="40" as="geometry" />
        </mxCell>
        <mxCell id="1745" value="" style="rounded=0;jumpStyle=none;html=1;shadow=0;labelBackgroundColor=none;startArrow=none;startFill=0;endArrow=none;endFill=0;jettySize=auto;orthogonalLoop=1;strokeColor=#CC6600;strokeWidth=3;fontFamily=Helvetica;fontSize=16;fontColor=#23445D;spacing=5;opacity=20;" parent="1" source="1749" target="1764" edge="1">
          <mxGeometry relative="1" as="geometry" />
        </mxCell>
        <mxCell id="1747" value="" style="edgeStyle=none;rounded=0;jumpStyle=none;html=1;shadow=0;labelBackgroundColor=none;startArrow=none;startFill=0;endArrow=none;endFill=0;jettySize=auto;orthogonalLoop=1;strokeColor=#26734D;strokeWidth=3;fontFamily=Helvetica;fontSize=16;fontColor=#23445D;spacing=5;opacity=20;" parent="1" source="1749" target="mnCScJUHg9c3yrpS6Z5W-1833" edge="1">
          <mxGeometry relative="1" as="geometry">
            <mxPoint x="469.3333333333335" y="448" as="targetPoint" />
          </mxGeometry>
        </mxCell>
        <mxCell id="1748" value="" style="rounded=0;jumpStyle=none;html=1;shadow=0;labelBackgroundColor=none;startArrow=none;startFill=0;endArrow=none;endFill=0;jettySize=auto;orthogonalLoop=1;strokeColor=#990000;strokeWidth=3;fontFamily=Helvetica;fontSize=16;fontColor=#23445D;spacing=5;opacity=20;" parent="1" source="1749" target="1753" edge="1">
          <mxGeometry relative="1" as="geometry" />
        </mxCell>
        <mxCell id="mnCScJUHg9c3yrpS6Z5W-1814" style="sketch=0;orthogonalLoop=1;jettySize=auto;html=1;shadow=0;strokeColor=#6666FF;strokeWidth=3;fontSize=26;endArrow=none;endFill=0;opacity=20;" parent="1" source="1749" target="mnCScJUHg9c3yrpS6Z5W-1802" edge="1">
          <mxGeometry relative="1" as="geometry" />
        </mxCell>
        <mxCell id="1749" value="&lt;div style=&quot;font-size: 48px;&quot;&gt;&lt;font style=&quot;font-size: 48px;&quot;&gt;&lt;font style=&quot;font-size: 48px;&quot;&gt;&lt;font style=&quot;font-size: 48px;&quot;&gt;&lt;font style=&quot;font-size: 48px;&quot;&gt;&lt;font style=&quot;font-size: 48px;&quot;&gt;&lt;font style=&quot;font-size: 48px;&quot;&gt;&lt;font style=&quot;font-size: 48px;&quot;&gt;&lt;font style=&quot;font-size: 48px;&quot;&gt;&lt;font style=&quot;font-size: 48px;&quot;&gt;&lt;font style=&quot;font-size: 48px;&quot;&gt;Modell&lt;/font&gt;&lt;/font&gt;&lt;/font&gt;&lt;/font&gt;&lt;/font&gt;&lt;/font&gt;&lt;/font&gt;&lt;/font&gt;&lt;/font&gt;&lt;/font&gt;&lt;/div&gt;" style="rounded=1;whiteSpace=wrap;html=1;shadow=1;labelBackgroundColor=none;strokeColor=none;strokeWidth=3;fillColor=#003366;fontFamily=Helvetica;fontSize=48;fontColor=#FFFFFF;align=center;fontStyle=0;spacing=5;arcSize=7;perimeterSpacing=2;opacity=20;" parent="1" vertex="1">
          <mxGeometry x="475" y="310" width="205" height="100" as="geometry" />
        </mxCell>
        <mxCell id="1750" value="" style="rounded=1;jumpStyle=none;html=1;shadow=0;labelBackgroundColor=none;startArrow=none;startFill=0;jettySize=auto;orthogonalLoop=1;strokeColor=#990000;strokeWidth=3;fontFamily=Helvetica;fontSize=14;fontColor=#FFFFFF;spacing=5;fontStyle=1;fillColor=#b0e3e6;endArrow=none;endFill=0;opacity=20;" parent="1" source="1753" target="mnCScJUHg9c3yrpS6Z5W-1839" edge="1">
          <mxGeometry relative="1" as="geometry">
            <mxPoint x="257.59375" y="62.000000000000114" as="targetPoint" />
          </mxGeometry>
        </mxCell>
        <mxCell id="1757" value="" style="rounded=0;jumpStyle=none;html=1;shadow=0;labelBackgroundColor=none;startArrow=none;startFill=0;endArrow=none;endFill=0;jettySize=auto;orthogonalLoop=1;strokeColor=#26734D;strokeWidth=3;fontFamily=Helvetica;fontSize=14;fontColor=#FFFFFF;spacing=5;opacity=20;" parent="1" source="mnCScJUHg9c3yrpS6Z5W-1833" target="mnCScJUHg9c3yrpS6Z5W-1842" edge="1">
          <mxGeometry relative="1" as="geometry">
            <mxPoint x="338" y="472.11428571428587" as="sourcePoint" />
            <mxPoint x="206.74418604651146" y="416" as="targetPoint" />
          </mxGeometry>
        </mxCell>
        <mxCell id="1758" value="" style="rounded=0;jumpStyle=none;html=1;shadow=0;labelBackgroundColor=none;startArrow=none;startFill=0;endArrow=none;endFill=0;jettySize=auto;orthogonalLoop=1;strokeColor=#26734D;strokeWidth=3;fontFamily=Helvetica;fontSize=14;fontColor=#FFFFFF;spacing=5;opacity=20;" parent="1" source="mnCScJUHg9c3yrpS6Z5W-1833" target="mnCScJUHg9c3yrpS6Z5W-1843" edge="1">
          <mxGeometry relative="1" as="geometry">
            <mxPoint x="338" y="490.82352941176464" as="sourcePoint" />
            <mxPoint x="182" y="464.969696969697" as="targetPoint" />
          </mxGeometry>
        </mxCell>
        <mxCell id="1759" value="" style="rounded=0;jumpStyle=none;html=1;shadow=0;labelBackgroundColor=none;startArrow=none;startFill=0;endArrow=none;endFill=0;jettySize=auto;orthogonalLoop=1;strokeColor=#26734D;strokeWidth=3;fontFamily=Helvetica;fontSize=14;fontColor=#FFFFFF;spacing=5;opacity=20;" parent="1" source="mnCScJUHg9c3yrpS6Z5W-1833" target="mnCScJUHg9c3yrpS6Z5W-1844" edge="1">
          <mxGeometry relative="1" as="geometry">
            <mxPoint x="338" y="511.13846153846157" as="sourcePoint" />
          </mxGeometry>
        </mxCell>
        <mxCell id="1764" value="Zielgruppe" style="rounded=1;whiteSpace=wrap;html=1;shadow=1;labelBackgroundColor=none;strokeColor=none;strokeWidth=3;fillColor=#c87004;fontFamily=Helvetica;fontSize=26;fontColor=#FFFFFF;align=center;spacing=5;fontStyle=0;arcSize=7;perimeterSpacing=2;opacity=20;" parent="1" vertex="1">
          <mxGeometry x="500" y="180" width="170" height="60" as="geometry" />
        </mxCell>
        <mxCell id="1771" value="Geltungsbereich" style="rounded=1;whiteSpace=wrap;html=1;shadow=1;labelBackgroundColor=none;strokeColor=none;strokeWidth=3;fillColor=#0066CC;fontFamily=Helvetica;fontSize=26;fontColor=#FFFFFF;align=center;spacing=5;fontStyle=0;arcSize=7;perimeterSpacing=2;" parent="1" vertex="1">
          <mxGeometry x="530" y="480" width="230" height="60" as="geometry" />
        </mxCell>
        <mxCell id="1773" value="" style="edgeStyle=none;rounded=1;jumpStyle=none;html=1;shadow=0;labelBackgroundColor=none;startArrow=none;startFill=0;jettySize=auto;orthogonalLoop=1;strokeColor=#0066CC;strokeWidth=3;fontFamily=Helvetica;fontSize=14;fontColor=#FFFFFF;spacing=5;fontStyle=1;fillColor=#b0e3e6;endArrow=none;endFill=0;" parent="1" source="1771" target="1772" edge="1">
          <mxGeometry relative="1" as="geometry" />
        </mxCell>
        <mxCell id="1775" value="" style="edgeStyle=none;rounded=1;jumpStyle=none;html=1;shadow=0;labelBackgroundColor=none;startArrow=none;startFill=0;jettySize=auto;orthogonalLoop=1;strokeColor=#0066CC;strokeWidth=3;fontFamily=Helvetica;fontSize=14;fontColor=#FFFFFF;spacing=5;fontStyle=1;fillColor=#b0e3e6;endArrow=none;endFill=0;" parent="1" source="1771" target="1774" edge="1">
          <mxGeometry relative="1" as="geometry" />
        </mxCell>
        <mxCell id="1777" value="" style="edgeStyle=none;rounded=1;jumpStyle=none;html=1;shadow=0;labelBackgroundColor=none;startArrow=none;startFill=0;jettySize=auto;orthogonalLoop=1;strokeColor=#0066CC;strokeWidth=3;fontFamily=Helvetica;fontSize=14;fontColor=#FFFFFF;spacing=5;fontStyle=1;fillColor=#b0e3e6;endArrow=none;endFill=0;" parent="1" source="1771" edge="1">
          <mxGeometry relative="1" as="geometry">
            <mxPoint x="790" y="480" as="targetPoint" />
          </mxGeometry>
        </mxCell>
        <mxCell id="mnCScJUHg9c3yrpS6Z5W-1791" value="" style="edgeStyle=none;rounded=1;jumpStyle=none;html=1;shadow=0;labelBackgroundColor=none;startArrow=none;startFill=0;jettySize=auto;orthogonalLoop=1;strokeColor=#0066CC;strokeWidth=3;fontFamily=Helvetica;fontSize=14;fontColor=#FFFFFF;spacing=5;fontStyle=1;fillColor=#b0e3e6;endArrow=none;endFill=0;" parent="1" source="1771" target="mnCScJUHg9c3yrpS6Z5W-1790" edge="1">
          <mxGeometry relative="1" as="geometry">
            <mxPoint x="782" y="593" as="sourcePoint" />
          </mxGeometry>
        </mxCell>
        <mxCell id="mnCScJUHg9c3yrpS6Z5W-1793" value="" style="edgeStyle=none;rounded=1;jumpStyle=none;html=1;shadow=0;labelBackgroundColor=none;startArrow=none;startFill=0;jettySize=auto;orthogonalLoop=1;strokeColor=#0066CC;strokeWidth=3;fontFamily=Helvetica;fontSize=14;fontColor=#FFFFFF;spacing=5;fontStyle=1;fillColor=#b0e3e6;endArrow=none;endFill=0;" parent="1" source="1771" target="mnCScJUHg9c3yrpS6Z5W-1792" edge="1">
          <mxGeometry relative="1" as="geometry">
            <mxPoint x="750" y="663" as="sourcePoint" />
          </mxGeometry>
        </mxCell>
        <mxCell id="mnCScJUHg9c3yrpS6Z5W-1795" value="" style="endArrow=none;html=1;shadow=0;sketch=0;strokeColor=#CC6600;strokeWidth=3;fontSize=26;opacity=20;" parent="1" source="1764" target="1769" edge="1">
          <mxGeometry width="50" height="50" relative="1" as="geometry">
            <mxPoint x="380" y="-80" as="sourcePoint" />
            <mxPoint x="420" y="-20" as="targetPoint" />
          </mxGeometry>
        </mxCell>
        <mxCell id="mnCScJUHg9c3yrpS6Z5W-1796" value="" style="endArrow=none;html=1;shadow=0;sketch=0;strokeColor=#CC6600;strokeWidth=3;fontSize=26;opacity=20;" parent="1" source="1764" target="1767" edge="1">
          <mxGeometry width="50" height="50" relative="1" as="geometry">
            <mxPoint x="456" y="98" as="sourcePoint" />
            <mxPoint x="608" y="-90" as="targetPoint" />
          </mxGeometry>
        </mxCell>
        <mxCell id="mnCScJUHg9c3yrpS6Z5W-1797" value="" style="endArrow=none;html=1;shadow=0;sketch=0;strokeColor=#CC6600;strokeWidth=3;fontSize=26;opacity=20;" parent="1" source="1764" target="1765" edge="1">
          <mxGeometry width="50" height="50" relative="1" as="geometry">
            <mxPoint x="466" y="108" as="sourcePoint" />
            <mxPoint x="618" y="-80" as="targetPoint" />
          </mxGeometry>
        </mxCell>
        <mxCell id="mnCScJUHg9c3yrpS6Z5W-1798" value="" style="endArrow=none;html=1;shadow=0;sketch=0;strokeColor=#CC6600;strokeWidth=3;fontSize=26;opacity=20;" parent="1" source="1764" target="mnCScJUHg9c3yrpS6Z5W-1780" edge="1">
          <mxGeometry width="50" height="50" relative="1" as="geometry">
            <mxPoint x="476" y="118" as="sourcePoint" />
            <mxPoint x="628" y="-70" as="targetPoint" />
          </mxGeometry>
        </mxCell>
        <mxCell id="mnCScJUHg9c3yrpS6Z5W-1799" value="" style="endArrow=none;html=1;shadow=0;sketch=0;strokeColor=#CC6600;strokeWidth=3;fontSize=26;opacity=20;" parent="1" source="1764" target="mnCScJUHg9c3yrpS6Z5W-1781" edge="1">
          <mxGeometry width="50" height="50" relative="1" as="geometry">
            <mxPoint x="486" y="128" as="sourcePoint" />
            <mxPoint x="638" y="-60" as="targetPoint" />
          </mxGeometry>
        </mxCell>
        <mxCell id="mnCScJUHg9c3yrpS6Z5W-1809" style="sketch=0;orthogonalLoop=1;jettySize=auto;html=1;shadow=0;strokeColor=#6666FF;strokeWidth=3;fontSize=26;endArrow=none;endFill=0;opacity=20;" parent="1" source="mnCScJUHg9c3yrpS6Z5W-1802" target="mnCScJUHg9c3yrpS6Z5W-1803" edge="1">
          <mxGeometry relative="1" as="geometry" />
        </mxCell>
        <mxCell id="mnCScJUHg9c3yrpS6Z5W-1811" style="sketch=0;orthogonalLoop=1;jettySize=auto;html=1;shadow=0;strokeColor=#6666FF;strokeWidth=3;fontSize=26;endArrow=none;endFill=0;opacity=20;" parent="1" source="mnCScJUHg9c3yrpS6Z5W-1802" target="mnCScJUHg9c3yrpS6Z5W-1804" edge="1">
          <mxGeometry relative="1" as="geometry" />
        </mxCell>
        <mxCell id="mnCScJUHg9c3yrpS6Z5W-1812" style="sketch=0;orthogonalLoop=1;jettySize=auto;html=1;shadow=0;strokeColor=#6666FF;strokeWidth=3;fontSize=26;endArrow=none;endFill=0;opacity=20;" parent="1" source="mnCScJUHg9c3yrpS6Z5W-1802" target="mnCScJUHg9c3yrpS6Z5W-1805" edge="1">
          <mxGeometry relative="1" as="geometry" />
        </mxCell>
        <mxCell id="mnCScJUHg9c3yrpS6Z5W-1813" style="sketch=0;orthogonalLoop=1;jettySize=auto;html=1;shadow=0;strokeColor=#6666FF;strokeWidth=3;fontSize=26;endArrow=none;endFill=0;opacity=20;" parent="1" source="mnCScJUHg9c3yrpS6Z5W-1802" target="mnCScJUHg9c3yrpS6Z5W-1806" edge="1">
          <mxGeometry relative="1" as="geometry" />
        </mxCell>
        <mxCell id="mnCScJUHg9c3yrpS6Z5W-1802" value="Perspektive" style="rounded=1;whiteSpace=wrap;html=1;shadow=1;labelBackgroundColor=none;strokeColor=none;strokeWidth=3;fillColor=#4A4ABA;fontFamily=Helvetica;fontSize=26;fontColor=#FFFFFF;align=center;spacing=5;fontStyle=0;arcSize=7;perimeterSpacing=2;opacity=20;" parent="1" vertex="1">
          <mxGeometry x="730" y="230" width="180" height="60" as="geometry" />
        </mxCell>
        <mxCell id="mnCScJUHg9c3yrpS6Z5W-1816" value="" style="edgeStyle=none;rounded=1;jumpStyle=none;html=1;shadow=0;labelBackgroundColor=none;startArrow=none;startFill=0;jettySize=auto;orthogonalLoop=1;strokeColor=#0066CC;strokeWidth=3;fontFamily=Helvetica;fontSize=14;fontColor=#FFFFFF;spacing=5;fontStyle=1;fillColor=#b0e3e6;endArrow=none;endFill=0;entryX=0.25;entryY=1;entryDx=0;entryDy=0;" parent="1" source="1771" target="1778" edge="1">
          <mxGeometry relative="1" as="geometry">
            <mxPoint x="713" y="480" as="sourcePoint" />
            <mxPoint x="850" y="430" as="targetPoint" />
          </mxGeometry>
        </mxCell>
        <mxCell id="mnCScJUHg9c3yrpS6Z5W-1818" value="" style="rounded=0;jumpStyle=none;html=1;shadow=0;labelBackgroundColor=none;startArrow=none;startFill=0;endArrow=none;endFill=0;jettySize=auto;orthogonalLoop=1;strokeColor=#26734D;strokeWidth=3;fontFamily=Helvetica;fontSize=14;fontColor=#FFFFFF;spacing=5;opacity=20;" parent="1" source="mnCScJUHg9c3yrpS6Z5W-1833" target="mnCScJUHg9c3yrpS6Z5W-1845" edge="1">
          <mxGeometry relative="1" as="geometry">
            <mxPoint x="373.52941176470586" y="512.0000000000002" as="sourcePoint" />
          </mxGeometry>
        </mxCell>
        <mxCell id="mnCScJUHg9c3yrpS6Z5W-1820" value="" style="rounded=0;jumpStyle=none;html=1;shadow=0;labelBackgroundColor=none;startArrow=none;startFill=0;endArrow=none;endFill=0;jettySize=auto;orthogonalLoop=1;strokeColor=#26734D;strokeWidth=3;fontFamily=Helvetica;fontSize=14;fontColor=#FFFFFF;spacing=5;opacity=20;" parent="1" source="mnCScJUHg9c3yrpS6Z5W-1833" target="mnCScJUHg9c3yrpS6Z5W-1846" edge="1">
          <mxGeometry relative="1" as="geometry">
            <mxPoint x="400.7826086956529" y="512.0000000000002" as="sourcePoint" />
          </mxGeometry>
        </mxCell>
        <mxCell id="mnCScJUHg9c3yrpS6Z5W-1828" value="" style="rounded=0;jumpStyle=none;html=1;shadow=0;labelBackgroundColor=none;startArrow=none;startFill=0;endArrow=none;endFill=0;jettySize=auto;orthogonalLoop=1;strokeColor=#26734D;strokeWidth=3;fontFamily=Helvetica;fontSize=14;fontColor=#FFFFFF;spacing=5;opacity=20;" parent="1" source="mnCScJUHg9c3yrpS6Z5W-1833" target="mnCScJUHg9c3yrpS6Z5W-1847" edge="1">
          <mxGeometry relative="1" as="geometry">
            <mxPoint x="424.66666666666697" y="512.0000000000002" as="sourcePoint" />
            <mxPoint x="158" y="654" as="targetPoint" />
          </mxGeometry>
        </mxCell>
        <mxCell id="mnCScJUHg9c3yrpS6Z5W-1829" value="" style="rounded=0;jumpStyle=none;html=1;shadow=0;labelBackgroundColor=none;startArrow=none;startFill=0;endArrow=none;endFill=0;jettySize=auto;orthogonalLoop=1;strokeColor=#26734D;strokeWidth=3;fontFamily=Helvetica;fontSize=14;fontColor=#FFFFFF;spacing=5;opacity=20;" parent="1" source="mnCScJUHg9c3yrpS6Z5W-1833" target="mnCScJUHg9c3yrpS6Z5W-1848" edge="1">
          <mxGeometry relative="1" as="geometry">
            <mxPoint x="445.5294117647063" y="512.0000000000002" as="sourcePoint" />
            <mxPoint x="168" y="664" as="targetPoint" />
          </mxGeometry>
        </mxCell>
        <mxCell id="mnCScJUHg9c3yrpS6Z5W-1830" value="" style="rounded=0;jumpStyle=none;html=1;shadow=0;labelBackgroundColor=none;startArrow=none;startFill=0;endArrow=none;endFill=0;jettySize=auto;orthogonalLoop=1;strokeColor=#26734D;strokeWidth=3;fontFamily=Helvetica;fontSize=14;fontColor=#FFFFFF;spacing=5;opacity=20;" parent="1" source="mnCScJUHg9c3yrpS6Z5W-1833" target="mnCScJUHg9c3yrpS6Z5W-1827" edge="1">
          <mxGeometry relative="1" as="geometry">
            <mxPoint x="463.4545454545455" y="512.0000000000002" as="sourcePoint" />
            <mxPoint x="178" y="674" as="targetPoint" />
          </mxGeometry>
        </mxCell>
        <mxCell id="mnCScJUHg9c3yrpS6Z5W-1833" value="Modellierungszweck" style="rounded=1;whiteSpace=wrap;html=1;shadow=1;labelBackgroundColor=none;strokeColor=none;strokeWidth=3;fillColor=#26734D;fontFamily=Helvetica;fontSize=26;fontColor=#ffffff;align=center;spacing=5;fontStyle=0;arcSize=7;perimeterSpacing=2;opacity=20;" parent="1" vertex="1">
          <mxGeometry x="220" y="450" width="280" height="60" as="geometry" />
        </mxCell>
        <mxCell id="mnCScJUHg9c3yrpS6Z5W-1838" value="" style="edgeStyle=none;rounded=1;jumpStyle=none;html=1;shadow=0;labelBackgroundColor=none;startArrow=none;startFill=0;jettySize=auto;orthogonalLoop=1;strokeColor=#0066CC;strokeWidth=3;fontFamily=Helvetica;fontSize=14;fontColor=#FFFFFF;spacing=5;fontStyle=1;fillColor=#b0e3e6;endArrow=none;endFill=0;" parent="1" source="1749" target="1771" edge="1">
          <mxGeometry relative="1" as="geometry">
            <mxPoint x="810" y="410" as="sourcePoint" />
            <mxPoint x="856" y="410" as="targetPoint" />
          </mxGeometry>
        </mxCell>
        <mxCell id="1753" value="Modellierungsgegenstand" style="rounded=1;whiteSpace=wrap;html=1;shadow=1;labelBackgroundColor=none;strokeColor=none;strokeWidth=3;fillColor=#990000;fontFamily=Helvetica;fontSize=26;fontColor=#FFFFFF;align=center;spacing=5;fontStyle=0;arcSize=7;perimeterSpacing=2;opacity=20;" parent="1" vertex="1">
          <mxGeometry x="70" y="310" width="340" height="60" as="geometry" />
        </mxCell>
        <mxCell id="1752" value="" style="rounded=1;jumpStyle=none;html=1;shadow=0;labelBackgroundColor=none;startArrow=none;startFill=0;jettySize=auto;orthogonalLoop=1;strokeColor=#990000;strokeWidth=3;fontFamily=Helvetica;fontSize=14;fontColor=#FFFFFF;spacing=5;fontStyle=1;fillColor=#b0e3e6;endArrow=none;endFill=0;opacity=20;" parent="1" source="1753" target="mnCScJUHg9c3yrpS6Z5W-1841" edge="1">
          <mxGeometry relative="1" as="geometry">
            <mxPoint x="124.0360610263524" y="201.7500000000001" as="targetPoint" />
          </mxGeometry>
        </mxCell>
        <mxCell id="1751" value="" style="rounded=1;jumpStyle=none;html=1;shadow=0;labelBackgroundColor=none;startArrow=none;startFill=0;jettySize=auto;orthogonalLoop=1;strokeColor=#990000;strokeWidth=3;fontFamily=Helvetica;fontSize=14;fontColor=#FFFFFF;spacing=5;fontStyle=1;fillColor=#b0e3e6;endArrow=none;endFill=0;opacity=20;" parent="1" source="1753" target="mnCScJUHg9c3yrpS6Z5W-1840" edge="1">
          <mxGeometry relative="1" as="geometry">
            <mxPoint x="179.4000000000001" y="132.0000000000001" as="targetPoint" />
          </mxGeometry>
        </mxCell>
      </root>
    </mxGraphModel>
  </diagram>
</mxfile>
